# xmcd
#
# Track frame offsets:
#  150
#  10289
#  22762
#  46380
#  53704
#  63941
#  80475
#  95483
#  108465
#  118967
#
# Disc length: 1776 seconds
#
# Revision: 0
# Processed by: cddbd v1.5.1PL0 Copyright (c) Steve Scherf et al.
# Submitted via: Collectorz.com Music Collector 6.9
#
DISCID=7a06ee0a
DTITLE=Rawls, Lou - The Best Of Lou Rawls
DYEAR=1900
DGENRE=
TTITLE0=Love Is A Hurtin' Thing
TTITLE1=Southside Blues (Monologue)
TTITLE2=Tobacco road
TTITLE3=Dead End Street (Monologue)
TTITLE4=Dead End Street
TTITLE5=Street Corner Hustler's Blues (Monologue)
TTITLE6=World Of Trouble
TTITLE7=Three O'Clock In The Morning
TTITLE8=Trouble Down Here Below
TTITLE9=My Ancestors
EXTD=
EXTT0=
EXTT1=
EXTT2=
EXTT3=
EXTT4=
EXTT5=
EXTT6=
EXTT7=
EXTT8=
EXTT9=
PLAYORDER=
